<?xml version="1.0" standalone="no"?>
<!DOCTYPE svg PUBLIC "-//W3C//DTD SVG 20010904//EN"
 "http://www.w3.org/TR/2001/REC-SVG-20010904/DTD/svg10.dtd">
<svg version="1.0" xmlns="http://www.w3.org/2000/svg"
 width="700.000000pt" height="700.000000pt" viewBox="0 0 700.000000 700.000000"
 preserveAspectRatio="xMidYMid meet">
<metadata>
Created by potrace 1.11, written by Peter Selinger 2001-2013
</metadata>
<g transform="translate(0.000000,700.000000) scale(0.100000,-0.100000)"
fill="#000000" stroke="none">
<path d="M3675 6120 l0 -870 -102 0 -102 0 -113 96 c-62 53 -140 120 -173 149
-54 47 -120 103 -284 244 -30 25 -93 79 -140 120 -125 107 -120 103 -311 266
-96 82 -177 151 -180 155 -3 3 -32 28 -65 55 -32 28 -66 57 -75 65 -9 8 -40
35 -70 60 -121 101 -205 175 -208 183 -4 8 -1842 10 -1842 1 0 -3 12 -16 27
-27 26 -21 228 -193 288 -246 17 -14 73 -62 125 -106 52 -44 102 -87 110 -95
8 -8 55 -49 105 -90 49 -41 97 -82 106 -90 8 -8 40 -36 70 -61 30 -26 93 -80
140 -120 47 -41 144 -123 215 -184 71 -60 131 -112 134 -115 3 -3 34 -30 70
-60 36 -30 67 -57 70 -60 3 -3 62 -54 132 -114 70 -59 124 -113 121 -119 -2
-7 -61 -59 -129 -117 -69 -58 -133 -112 -142 -120 -9 -8 -78 -67 -152 -130
-74 -63 -137 -117 -140 -120 -3 -3 -194 -167 -425 -365 -231 -197 -427 -366
-436 -374 -9 -9 -25 -23 -35 -31 -43 -34 -140 -117 -173 -148 -20 -19 -46 -40
-59 -49 -12 -8 -22 -18 -22 -22 0 -3 392 -6 870 -6 l870 0 0 -105 c0 -105 0
-105 -33 -140 -18 -19 -70 -80 -117 -135 -47 -55 -97 -113 -111 -130 -24 -27
-209 -245 -323 -378 -23 -27 -50 -59 -61 -71 -30 -34 -62 -72 -150 -176 -44
-52 -82 -97 -85 -100 -4 -3 -71 -81 -150 -175 -80 -93 -147 -172 -150 -175 -3
-3 -43 -50 -90 -105 -47 -55 -95 -111 -107 -125 l-23 -25 0 -912 c0 -502 2
-913 4 -913 3 0 98 109 212 242 115 134 211 245 214 248 3 3 30 34 60 70 30
36 57 67 60 70 3 3 30 34 59 70 30 36 60 70 66 75 5 6 156 181 335 390 179
209 335 391 348 405 13 14 46 53 75 88 l52 62 30 -33 c38 -42 114 -130 196
-227 35 -41 66 -77 69 -80 3 -3 46 -52 95 -110 49 -58 92 -107 95 -110 3 -3
30 -34 60 -70 30 -36 59 -70 65 -76 5 -6 30 -35 55 -64 25 -29 50 -58 55 -64
6 -6 50 -58 100 -116 49 -58 96 -112 105 -121 8 -9 24 -27 34 -40 33 -40 499
-583 512 -596 7 -7 14 -13 16 -13 2 0 3 388 2 862 0 475 1 866 3 870 2 5 23
-10 46 -31 23 -21 58 -52 77 -67 19 -16 42 -36 50 -44 9 -8 41 -36 71 -62 30
-25 64 -54 75 -65 12 -10 43 -36 70 -58 27 -22 55 -47 64 -55 9 -8 40 -35 70
-60 30 -25 60 -50 65 -56 6 -5 39 -35 75 -64 36 -30 72 -61 81 -70 8 -8 34
-30 57 -48 22 -19 51 -43 64 -54 13 -11 47 -41 77 -66 30 -26 62 -54 71 -62 8
-8 40 -35 70 -60 30 -25 60 -49 66 -55 6 -5 37 -32 69 -60 32 -27 63 -55 69
-60 6 -6 56 -48 111 -95 55 -46 102 -87 105 -90 3 -3 34 -30 70 -60 35 -30 71
-61 79 -68 7 -7 52 -46 99 -85 l85 -72 914 0 c502 0 912 3 910 7 -1 3 -74 68
-162 143 -88 76 -173 149 -190 164 -16 14 -73 62 -125 106 -52 44 -97 82 -100
85 -3 3 -52 45 -110 95 -58 49 -107 92 -110 95 -5 5 -114 99 -160 137 -14 12
-144 124 -290 248 -283 243 -318 273 -450 385 -47 40 -94 82 -104 93 -19 20
-19 20 10 46 36 32 103 89 250 213 61 52 126 108 145 125 19 17 165 142 324
278 160 136 304 259 320 274 17 14 190 163 385 330 195 167 358 309 362 315 4
8 -225 11 -855 10 -474 0 -866 2 -870 4 -4 2 0 11 10 20 10 10 54 60 98 112
44 52 82 97 85 100 3 3 60 68 125 145 66 77 129 151 141 165 12 14 122 142
244 285 205 241 286 335 333 389 11 11 35 41 55 65 21 24 70 83 111 130 40 47
83 97 95 111 42 51 141 165 159 185 10 11 40 46 65 77 l47 58 0 910 c0 500 -3
909 -7 908 -3 -2 -68 -75 -143 -163 -76 -88 -159 -185 -185 -215 -26 -30 -136
-158 -245 -285 -108 -126 -209 -244 -224 -260 -14 -17 -51 -59 -81 -95 -30
-36 -57 -67 -60 -70 -3 -3 -87 -99 -185 -215 -99 -115 -182 -212 -185 -215 -3
-3 -30 -34 -60 -70 -30 -36 -57 -67 -60 -70 -3 -3 -34 -39 -69 -80 -36 -41
-67 -75 -71 -75 -4 0 -51 52 -106 115 -54 63 -109 126 -120 140 -12 14 -124
144 -249 290 -125 146 -239 279 -254 295 -14 17 -134 156 -266 310 -132 154
-244 285 -250 291 -5 6 -29 33 -52 60 -23 27 -52 60 -63 74 -12 14 -63 73
-113 133 -51 59 -94 107 -97 107 -3 0 -5 -391 -5 -870z m0 -912 c-2 -42 -4
-40 160 -228 22 -26 63 -73 90 -105 28 -33 68 -80 90 -105 22 -25 60 -70 85
-100 44 -53 110 -130 120 -140 7 -7 101 -118 126 -149 10 -13 26 -31 35 -40 8
-9 40 -45 70 -81 30 -36 56 -67 60 -70 3 -3 137 -160 299 -350 162 -190 304
-356 316 -370 70 -80 114 -135 114 -141 0 -4 -16 -5 -35 -3 -30 2 -44 -5 -98
-49 -34 -28 -67 -56 -73 -62 -6 -5 -22 -19 -35 -30 -49 -41 -234 -200 -239
-205 -3 -3 -32 -28 -65 -55 -33 -28 -64 -55 -70 -61 -5 -5 -39 -35 -75 -65
-36 -30 -70 -58 -76 -64 -6 -5 -35 -30 -65 -55 -29 -25 -61 -52 -69 -60 -9 -8
-43 -37 -75 -65 -33 -27 -62 -52 -65 -55 -3 -3 -34 -30 -70 -60 -36 -30 -67
-57 -70 -60 -5 -5 -108 -93 -155 -132 -29 -25 -55 -47 -125 -108 -97 -85 -98
-86 -142 -122 -23 -18 -53 -44 -68 -58 -15 -14 -49 -43 -75 -65 -27 -22 -53
-45 -59 -50 -25 -23 -103 -85 -108 -85 -3 0 -4 16 -3 35 2 31 -8 48 -97 152
-108 127 -179 210 -243 283 -22 25 -60 70 -85 100 -25 29 -54 64 -65 76 -11
12 -38 43 -60 70 -32 38 -271 318 -388 454 -32 37 -129 151 -149 175 -9 11
-29 34 -43 50 -14 17 -81 94 -148 173 l-122 143 -1 90 c-2 119 -1 116 -26 83
-58 -75 -55 -74 -99 -25 -21 24 -37 47 -34 51 3 4 19 6 36 5 26 -2 46 10 119
71 79 65 127 107 179 154 9 8 33 29 52 45 20 17 58 49 85 72 71 60 364 311
399 341 64 57 184 159 235 202 30 25 61 52 70 60 9 8 56 49 105 90 50 41 95
80 101 85 43 38 87 77 139 120 33 28 76 65 96 83 84 76 88 77 194 77 l98 -1
-49 44 -48 44 40 38 c48 48 60 49 59 8z"/>
</g>
</svg>
