<svg width="200" height="150" xmlns="http://www.w3.org/2000/svg" xmlns:xlink="http://www.w3.org/1999/xlink">
    <defs>
        <path d="M40.614 13.012C24.646 24.039 13.6 38.879 18.024 60.818c4.426 21.938-36.366 30.621-7.597 59.682 28.769 29.06 141.803 3.732 168.401-16.977 26.598-20.71 30.703-51.697-3.652-66.962C140.82 21.295 152.989 5.1 108.484 1.367c-44.505-3.733-51.903.617-67.87 11.645z" id="a"/>
        <rect id="c" x="10.259" y="5.74" width="53.794" height="81.502" rx="26.897"/>
        <path d="M47.025 118.393l27.644 23.13a5 5 0 0 0 4.211 1.063l34.671-7.099a1 1 0 0 0 .465-1.726l-29.835-26.618-36.765 9.515a1 1 0 0 0-.391 1.735z" id="f"/>
        <filter x="-3%" y="-2.8%" width="105.9%" height="111.3%" filterUnits="objectBoundingBox" id="e">
            <feMorphology radius=".5" operator="dilate" in="SourceAlpha" result="shadowSpreadOuter1"/>
            <feOffset dy="1" in="shadowSpreadOuter1" result="shadowOffsetOuter1"/>
            <feColorMatrix values="0 0 0 0 0.570285927 0 0 0 0 0.457892928 0 0 0 0 0.392330346 0 0 0 1 0" in="shadowOffsetOuter1"/>
        </filter>
        <path d="M1.778 2.262l.915 29.391c1.174 3.695 1.927 5.542 2.258 5.542.33 0 .848-2.115 1.55-6.347L5.35 1.898A1.68 1.68 0 0 0 3.5.295a1.918 1.918 0 0 0-1.722 1.968z" id="g"/>
        <path d="M19.032 24.697c-.371-.771-.787-1.927-1.212-3.434-.96-3.4-1.875-8.246-2.714-14.473-.554-4.109-4.318-6.988-8.408-6.432S-.26 4.696.294 8.805c2.06 15.279 4.442 23.721 9.082 27.554a7.45 7.45 0 0 0 10.52-1.032 7.533 7.533 0 0 0-.663-10.246 5.822 5.822 0 0 1-.2-.384z" id="i"/>
    </defs>
    <g fill="none" fill-rule="evenodd" opacity=".97">
        <g transform="translate(0 15.306)">
            <mask id="b" fill="#fff">
                <use xlink:href="#a"/>
            </mask>
            <use fill-opacity=".5" fill="#4A9DFF" xlink:href="#a"/>
            <path fill="#DBEBFF" mask="url(#b)" d="M-6.52 109.715l223.303-59.328 3.985 76.93L16.08 140.259z"/>
        </g>
        <g transform="translate(45.128 50)">
            <mask id="d" fill="#fff">
                <use xlink:href="#c"/>
            </mask>
            <use fill="#FF455B" transform="rotate(15 37.156 46.49)" xlink:href="#c"/>
            <path fill="#E93D52" mask="url(#d)" transform="rotate(9 15.658 46.272)" d="M9.23 43.242l.535-2.186 12.32 8.263-1.753 2.168z"/>
            <path d="M41.287 14.608L32.352 55.24c24.286 1.089 37.11-.258 38.475-4.04 2.048-5.672 4.42-34.392-2.047-39.857-4.311-3.644-12.534-6.05-24.67-7.22l-2.823 10.486z" fill-opacity=".1" fill="#2B0005" mask="url(#d)"/>
        </g>
        <path d="M1.026 123.81L197.21 71.429c7.398 15.443-.33 34.196-18.291 48.25-26.66 20.86-139.96 46.372-168.796 17.1-4.76-4.832-7.62-9.104-9.097-12.97z" fill="#C7E0FE"/>
        <ellipse fill="#664736" cx="85.641" cy="16.837" rx="5.641" ry="5.612"/>
        <path fill="#C5DDFC" d="M45.272 115.458l30.43 26.306 38.991-7.256-30.731-28.32z"/>
        <use fill="#000" filter="url(#e)" xlink:href="#f"/>
        <use fill="#AF8B76" xlink:href="#f"/>
        <path fill="#FFF7E5" d="M45.128 115.045l30.885 25.771 38.859-7.935-31.221-27.779z"/>
        <path d="M75.268 121.429c.276-.246.547-.418.825-.531.56-.23.959-.234 2.252-.105l.217.022c.71.067 1.072-.164 1.608-.797l.019-.023c.397-.47.598-.611 1.005-.617.203-.003.416.004.698.022l.266.018c1.534.106 2.207.025 2.97-.58l-.37-.47c-.607.48-1.169.548-2.56.452a40.66 40.66 0 0 0-.269-.018 9.395 9.395 0 0 0-.744-.024c-.627.01-.954.239-1.452.829l-.02.023c-.421.499-.63.632-1.095.588a39.787 39.787 0 0 1-.214-.021c-1.394-.14-1.852-.134-2.537.145a3.47 3.47 0 0 0-.995.638l.396.449zM76.095 132.653c.216-.057.414-.137.65-.254.094-.047.426-.221.497-.257.867-.438 1.705-.605 3.25-.485.699.054 1.148-.162 1.745-.675l.223-.193c.265-.221.43-.308.61-.312a7.87 7.87 0 0 1 .974.04c.636.056.808.063 1.115.018.524-.077.998-.329 1.556-.838.143-.131.297-.13.928-.003.996.202 1.605.164 2.32-.346 1.065-.763 1.816-.843 3.04-.538.953.237 1.603.138 2.795-.263l.274-.091c.57-.187.937-.262 1.336-.247l.028-.656c-.511-.018-.956.073-1.605.286l-.28.093c-1.063.358-1.588.437-2.36.245-1.425-.355-2.405-.25-3.668.653-.506.362-.918.387-1.726.224-.883-.178-1.194-.18-1.586.178-.46.42-.805.602-1.165.655-.222.033-.366.027-.934-.023a8.582 8.582 0 0 0-1.063-.043c-.395.01-.691.166-1.071.484-.055.046-.268.23-.23.198-.464.399-.747.536-1.195.5-1.688-.13-2.667.064-3.656.564-.08.04-.408.214-.492.255a2.604 2.604 0 0 1-.508.2l.198.631zM69.941 127.551c.216-.057.414-.137.651-.254.093-.047.425-.221.496-.257.867-.438 1.705-.605 3.25-.485.699.054 1.148-.162 1.745-.676-.033.03.174-.15.224-.192.264-.221.428-.308.609-.312a7.87 7.87 0 0 1 .974.04c.637.056.808.063 1.115.018.524-.077.998-.329 1.556-.838.144-.131.297-.13.929-.003.995.201 1.604.164 2.318-.347 1.067-.762 1.817-.842 3.042-.537.952.237 1.602.138 2.794-.263l.274-.091c.57-.187.937-.262 1.336-.248l.028-.655c-.511-.018-.956.073-1.605.286l-.28.093c-1.063.358-1.588.437-2.36.245-1.425-.355-2.405-.25-3.668.653-.506.362-.918.387-1.726.224-.883-.178-1.194-.18-1.586.178-.46.42-.805.602-1.165.655-.222.033-.366.027-.934-.023a8.582 8.582 0 0 0-1.062-.043c-.396.01-.692.166-1.072.484-.055.046-.268.23-.23.198-.463.399-.747.536-1.195.5-1.688-.13-2.667.064-3.656.564-.08.04-.408.214-.492.255a2.604 2.604 0 0 1-.507.2l.197.631z" fill="#A7AAB2" fill-rule="nonzero"/>
        <path fill="#979797" fill-rule="nonzero" d="M71.895 128.571l26.567-4.602-.1-.5-26.567 4.603zM77.023 133.673l26.567-4.602-.1-.5-26.567 4.603zM66.767 124.49l26.566-4.603-.1-.5-26.566 4.603zM61.639 120.408l26.566-4.602-.1-.5-26.567 4.603z"/>
        <path d="M74.56 68.799c4.302-2.561 5.7-8.101 3.12-12.374-2.578-4.273-8.157-5.66-12.459-3.1-13.105 7.802-23.29 19.147-30.464 33.834a8.975 8.975 0 0 0 1.942 10.5l15.135 14.17c3.65 3.417 9.398 3.249 12.839-.376a8.976 8.976 0 0 0-.379-12.75L54.23 89.278c5.297-8.766 12.057-15.555 20.331-20.48z" fill="#FF455B" fill-rule="nonzero"/>
        <path d="M72.963 105.451l.383 1.326a6.853 6.853 0 0 1-5.442 8.657l-2.337.396a8.213 8.213 0 0 1-8.19-3.52 5.395 5.395 0 0 1 1.399-7.437l4.242-2.951a6.492 6.492 0 0 1 9.945 3.53z" fill="#D2A28E"/>
        <g transform="translate(68.718 83.673)">
            <path d="M5.411 25.868c-.782 1.128-.463 2.652.713 3.403 1.177.751 2.765.445 3.547-.684 1.609-2.32 2.424-3.777 2.578-4.92.157-1.17-.354-1.985-1.173-2.698-.418-.363-.954-.714-1.635-1.089-1.181-.65-2.894-1.418-5.165-2.323-1.305-.52-2.802.073-3.344 1.325-.542 1.252.076 2.688 1.38 3.208 1.908.761 3.356 1.402 4.322 1.909-.306.51-.715 1.136-1.223 1.869z" fill="#D2A28E" fill-rule="nonzero"/>
            <mask id="h" fill="#fff">
                <use xlink:href="#g"/>
            </mask>
            <use fill="#FDBD39" transform="rotate(-4 4.14 18.74)" xlink:href="#g"/>
            <path d="M3.152 33.282c-.153-1.344.484-2.242 1.221-1.454.738.788 1.398.04 1.682-.478.285-.518 1.876-.86 1.83.135-.047.995.608 7.126-.996 7.06-1.604-.066-3.584-3.918-3.737-5.263z" fill="#F7CDB5" mask="url(#h)"/>
        </g>
        <path d="M66.171 104.009c.244.275.52.646.778 1.046.26.405.481.81.628 1.146.063.144.107.264.131.349.017 1.978.483 7.016.891 8.082.51 1.336 2.062 2.025 3.466 1.539 1.404-.486 2.128-1.962 1.618-3.297-.127-.332-.566-5.132-.566-6.43 0-2.195-2.582-6.21-4.558-7.178-1.328-.65-2.959-.155-3.643 1.109-.658 1.214-.2 2.695 1.016 3.386.061.055.144.14.24.248z" fill="#D2A28E" fill-rule="nonzero"/>
        <path d="M69.408 87.755l3.925-.236-.307-2.2a1.91 1.91 0 0 0-2.1-1.634 1.903 1.903 0 0 0-1.688 2.05l.17 2.02z" fill="#FFA0A8"/>
        <path d="M69.536 89.64l-.305-3.37c.836.171 1.518.235 2.046.194.527-.042 1.11-.292 1.747-.75l.31 3.556c-.767.34-1.36.514-1.782.525-.421.01-1.093-.042-2.016-.155z" fill="#E0E4EA"/>
        <path fill="#9FC1EB" d="M111.394 81.633l-2.676-5.418 20.634-6.827.904 6.827z"/>
        <path d="M109.744 89.355c.097.895.545 1.575 1.344 2.041.8.467 1.719.563 2.758.288l4.103-5.913-2.4-2.383-3.247-.735-2.558 6.702zM128.554 79.592l-1.965 1.404-.435 2.138 6.265 2.58 1.94-2.58z" fill="#91B4E0"/>
        <path d="M128.205 76.53c-.568 5.42-2.417 8.67-5.547 9.748-4.696 1.618-10.275-1.443-11.778-3.305-1.001-1.241 4.773-3.389 17.325-6.442z" fill="#BFD8F8"/>
        <path fill="#C5DDFC" d="M170.256 112.578l-28.364-16.66-47.533 3.773 28.608 21.738 46.808-7.526z"/>
        <path d="M103.255 68.367l-9.214 23.28-1.733 15.567 29.19 21.357 47.733-8.463v-7.326l-45.898 6.542-22.042-16.597-2.755-2.075c2.82-11.602 5.468-19.883 7.942-24.844" fill="#9FC1EB"/>
        <path d="M100.513 93.878l8.205-20.409" stroke="#A7CBF9" stroke-width="9"/>
        <path d="M104.01 66.351l3.491 8.752a2 2 0 0 0 2.36 1.195l19.646-5.097a2 2 0 0 0 1.383-2.605l-3.864-10.881a2 2 0 0 0-2.587-1.204l-19.274 7.226a2 2 0 0 0-1.156 2.614z" fill="#C5DDFC"/>
        <path d="M74.359 119.955c0-.321.337-.613.517-.561.18.05.525.329.508.561-.011.156-.057.62-.137 1.39l-.375.084c-.342-.768-.513-1.26-.513-1.474z" fill="#5F6269"/>
        <g transform="translate(64.615)">
            <ellipse fill="#664736" cx="52.678" cy="34.034" rx="5.481" ry="5.505"/>
            <ellipse fill="#664736" cx="17.479" cy="15.845" rx="9.522" ry="9.68"/>
            <ellipse fill="#664736" cx="6.407" cy="37.756" rx="3.158" ry="3.211"/>
            <g transform="translate(4.982 28.528)">
                <mask id="j" fill="#fff">
                    <use xlink:href="#i"/>
                </mask>
                <use fill="#D2A28E" fill-rule="nonzero" xlink:href="#i"/>
                <path d="M24.418 35.702c9.049 0 24.934-13.4 24.934-27.4 0-13.999-11.163-25.348-24.934-25.348-13.77 0-24.934 11.349-24.934 25.348 0 14 15.886 27.4 24.934 27.4z" fill="#D09685" mask="url(#j)" transform="rotate(6 24.418 9.328)"/>
            </g>
            <path d="M27.142 62.585c8.999.946 26.198-10.721 27.662-24.644 1.463-13.922-8.453-26.376-22.148-27.815-13.695-1.44-25.984 8.68-27.447 22.603-1.464 13.922 12.934 28.91 21.933 29.856z" fill="#D2A28E"/>
            <ellipse fill="#664736" cx="50.429" cy="23.761" rx="7.979" ry="8.111"/>
            <ellipse fill="#664736" cx="10.696" cy="24.133" rx="8.755" ry="8.9"/>
            <ellipse fill="#664736" cx="10.227" cy="28.501" rx="4.654" ry="4.732"/>
            <ellipse fill="#664736" cx="43.473" cy="10.569" rx="4.488" ry="4.563"/>
            <ellipse fill="#664736" cx="32.759" cy="16.932" rx="16.655" ry="16.932"/>
            <ellipse fill="#D69888" cx="25.445" cy="47.073" rx="3.657" ry="2.028"/>
            <path d="M27.952 41.442c-1.15.058-2.176.228-3.055.538a.835.835 0 1 0 .557 1.575c.707-.25 1.582-.395 2.583-.445a20.672 20.672 0 0 1 2.764.064c.16.014.314.027.492.044l.373.036c.13.012.21.018.279.019a.78.78 0 0 0 .369-.065c.155-.066.155-.066.39-.325.169-.447.169-.447.047-.82-.251-.324-.251-.324-.354-.37a17.883 17.883 0 0 1-1.012-.593 16.552 16.552 0 0 1-1.856-1.34c-.746-.628-1.31-1.252-1.636-1.838a.835.835 0 0 0-1.46.813c.44.79 1.132 1.555 2.02 2.302.153.13.31.257.47.382-.325 0-.648.007-.97.023z" fill="#553D3A" fill-rule="nonzero"/>
            <path d="M43.736 41.904l-.905 5.394 7.86.979.97-4.914-7.925-1.459zm-1.553-.834a1.117 1.117 0 0 1 1.3-.91l9.036 1.663c.617.122 1.01.708.89 1.31l-1.18 5.976c-.113.573-.65.961-1.23.889l-8.95-1.115a1.114 1.114 0 0 1-.96-1.289l1.094-6.524z" fill="#4B4E56" fill-rule="nonzero"/>
            <path d="M37.086 39.796c.465 0 2.293.3 6.026.97l-.454 2.746a409.126 409.126 0 0 1-4.601-.714 36.99 36.99 0 0 1-1.067-.187 2.752 2.752 0 0 1-.37-.092c-.09-.028-.09-.028-.325-.156-.196-.12-.196-.12-.528-.63-.124-1.024-.124-1.024.417-1.632.594-.3.594-.3.734-.297.107-.008.107-.008.168-.008z" fill="#4B4E56" fill-rule="nonzero"/>
            <path d="M35.701 50.112c-1.84-1.312-3.8-1.532-7.047.012-3.248 1.544-6.043-1.127-7.62-1.527-1.578-.4 3.24 3.677 6.2 4.883 2.959 1.206 5.872 2.481 8.033.95 2.161-1.532 2.275-3.007.434-4.318z" fill="#664736"/>
            <path d="M37.616 51.108c-.926.439-1.83 2.418-.451 4.333 1.378 1.916 5.355 1.034 7.918.517 2.562-.517.631-.66-1.054-.814-1.685-.153-1.9-3.283-3.194-3.889-1.294-.606-2.292-.585-3.219-.147z" fill="#664736"/>
            <path d="M36.997 45.602l4.873 1.036a1 1 0 0 1 .77 1.186l-.573 2.699a3 3 0 0 1-3.559 2.31l-.96-.203a3 3 0 0 1-2.31-3.559l.573-2.699a1 1 0 0 1 1.186-.77z" fill="#F8ACA3"/>
            <path d="M23.356 44.542l10.875 1.375 1.312-5.64-11.108-1.737-1.079 6.002zm-.47-6.833c.108-.595.671-.996 1.269-.903l12.238 1.914a1.114 1.114 0 0 1 .912 1.352l-1.56 6.712c-.13.556-.659.924-1.225.852l-11.955-1.51a1.114 1.114 0 0 1-.957-1.302l1.279-7.115z" fill="#4B4E56" fill-rule="nonzero"/>
            <path fill="#4B4E56" fill-rule="nonzero" d="M24.06 36.722L7.217 26.472 5.769 28.85 22.613 39.1z"/>
            <rect fill="#C79281" x=".446" y="29.497" width="8.472" height="8.787" rx="4.236"/>
            <path d="M4.386 28.157a4.886 4.886 0 0 1 4.978 3.352l.341 1.042a3.607 3.607 0 0 1-3.371 4.73l-2.207.035a3.983 3.983 0 0 1-4.022-4.414l.077-.704a4.543 4.543 0 0 1 4.204-4.041z" fill="#D2A28E"/>
            <path d="M7.787 31.823a2.881 2.881 0 0 0-1.375 2.465c0 .693.242 1.329.643 1.825-.424.258-.92.407-1.45.407-1.561 0-2.827-1.286-2.827-2.873 0-1.586 1.266-2.873 2.826-2.873.88 0 1.665.409 2.183 1.049z" fill="#C79281"/>
            <ellipse fill="#664736" cx="15.445" cy="17.017" rx="3.986" ry="4.004"/>
            <ellipse fill="#664736" cx="48.328" cy="17.017" rx="6.477" ry="6.506"/>
            <path d="M22.315 53.015c.63.789 2.663 2.203 4.733 3.184 2.859 1.356 5.661 1.925 8.101 1.356a.835.835 0 1 0-.379-1.626c-2.007.468-4.457-.03-7.006-1.238-1.861-.883-3.699-2.16-4.143-2.717a.835.835 0 0 0-1.306 1.04z" fill="#553D3A" fill-rule="nonzero"/>
            <path d="M23.356 52.157c0-.91-.498-2.89 2.024-2.072 2.522.818 2.896 4.045 2.771 4.993-.04.298-4.795-2.315-4.795-2.921z" fill="#FF455B"/>
        </g>
        <path d="M114.19 62.245c-3.67-9.013-5.766-14.197-6.29-15.554-.786-2.035.797-4.767 2.422-5.29 1.624-.523 5.317-1.92 7.167 3.06 1.233 3.319 3.096 8.132 5.588 14.438l-8.887 3.346z" fill="#9FC1EB"/>
        <ellipse fill="#E4F0FF" cx="105.128" cy="71.939" rx="4.615" ry="4.592"/>
        <path d="M90.175 98.824l25.053 16.047 52.068-5.515.935-2.958-29.593-15.687-48.46 4.407z" fill="#C0C3C8"/>
        <path d="M118.974 85.952l4.144 7.926c1.349.001 2.33-.093 2.947-.284.617-.19 1.33-.62 2.14-1.29l-1.864-8.13c-1.266-.512-2.51-.632-3.733-.357-1.222.275-2.434.987-3.634 2.135z" fill="#A7CBF9"/>
        <path d="M117.336 110.838l15.361-38.283a5 5 0 0 1 4.38-3.13l43.657-2.289a2 2 0 0 1 1.954 2.76l-14.938 36.251-50.414 4.691z" fill="#CACED2"/>
        <path d="M157.027 81.895c-.109.287-.297.573-.59.931-.295.36-.64.65-1.066.942-1.06.602-1.487.66-1.905.668.243-.671.697-1.264 1.203-1.776.692-.578 1.435-.855 2.388-1.052.026.14-.003.216-.03.287zm-4.62 3.073c.5.146.868.217 1.026.216.238-.003.581-.081 1.189-.235.607-.153 1.109-.23 1.425-.233.633-.005 1.133.136 1.498.42.131.07.522.494.599.708-.504.297-.929.595-1.195.892-.479.45-.905.975-1.095 1.495-.216.596-.274 1.188-.042 1.616.233.427.492.777.938.821-.187.304-.55.915-1.62 1.957-1.07 1.062-1.85 1.585-2.559 1.652-.315.03-.603-.02-1.022-.133-.419-.116-.786-.16-1.1-.132-.316.028-.736.144-1.183.34-.526.206-.868.317-1.104.339-.788.073-1.335-.597-1.67-1.931a7.158 7.158 0 0 1 .15-4.006c.268-1.045.931-2.092 1.726-2.814.9-.791 1.747-1.184 2.696-1.19.396-.002.843.07 1.343.218z" fill="#FFF"/>
        <path d="M76.483 113.254c-1.485.15-1.791-1.223-1.525-2.32.267-1.096.32-2.412 1.726-2.735 1.406-.323 2.64 1.637 2.2 2.527-.439.89-.916 2.378-2.401 2.528z" fill="#D2A28E"/>
        <path d="M100.452 127.163c.507.161 1.041-.146 1.193-.686.151-.54-.137-1.108-.645-1.27l-2.125-.674c-.5-.16-1.028.137-1.187.666l-1.232 4.08c-.161.537.116 1.112.62 1.284.505.172 1.045-.123 1.207-.66l.944-3.13 1.225.39zM95.323 123.081c.508.161 1.042-.146 1.193-.686.152-.54-.137-1.108-.644-1.27l-2.125-.674c-.5-.159-1.028.137-1.188.666l-1.23 4.081c-.163.537.115 1.111.62 1.284.503.172 1.043-.124 1.205-.66l.944-3.13 1.225.39zM90.195 119c.508.16 1.042-.146 1.193-.686.152-.54-.137-1.109-.644-1.27l-2.125-.675c-.5-.158-1.028.138-1.188.666l-1.231 4.082c-.162.536.116 1.11.62 1.283.504.172 1.044-.123 1.206-.66l.944-3.13 1.225.39z" fill="#48DA90" fill-rule="nonzero"/>
    </g>
</svg>
